# xmcd CD database file
#
# Track frame offsets:
#	150
#	14409
#	29946
#	43912
#	61325
#	75512
#	89870
#	104847
#	121489
#	132544
#	145999
#	161616
#	174593
#	190235
#	201199
#
# Disc length: 2824 seconds
#
# Revision: 0
# Processed by: cddbd v1.5.2PL0 Copyright (c) Steve Scherf et al.
# Submitted via: CDex 1.51
#
DISCID=e90b060f
DTITLE=Judy Kanyo - Not What I Had In Mind
DYEAR=2007
DGENRE=Country
TTITLE0=Not What I Had In Mind
TTITLE1=Stop The Clock 
TTITLE2=Gone For Good 
TTITLE3=You Wouldn't Lie To An Angel Would Ya
TTITLE4=100 Percent Pure Texan
TTITLE5=You Win Some, You Learn Some
TTITLE6=Teardrops Dry
TTITLE7=Walkin' On The Blue Side
TTITLE8=West Texas Wind
TTITLE9=What A Heart Will Do For Love
TTITLE10=Your Love Has Got A Hold On Me
TTITLE11=I'll Live 
TTITLE12=When Does Getting Over You Get Over
TTITLE13=Airplane Light
TTITLE14=Mistletoe My Cowboy And Me
EXTD=YEAR: 2007
EXTT0=
EXTT1=
EXTT2=
EXTT3=
EXTT4=
EXTT5=
EXTT6=
EXTT7=
EXTT8=
EXTT9=
EXTT10=
EXTT11=
EXTT12=
EXTT13=
EXTT14=
PLAYORDER=
